<?xml version="1.0" encoding="UTF-8"?>
<!DOCTYPE svg PUBLIC "-//W3C//DTD SVG 1.1//EN" "http://www.w3.org/Graphics/SVG/1.1/DTD/svg11.dtd">
<svg xmlns="http://www.w3.org/2000/svg" version="1.1" width="537px" height="327px" style="shape-rendering:geometricPrecision; text-rendering:geometricPrecision; image-rendering:optimizeQuality; fill-rule:evenodd; clip-rule:evenodd" xmlns:xlink="http://www.w3.org/1999/xlink">
<g><path style="opacity:1" fill="#fefefe" d="M -0.5,-0.5 C 178.5,-0.5 357.5,-0.5 536.5,-0.5C 536.5,108.5 536.5,217.5 536.5,326.5C 357.5,326.5 178.5,326.5 -0.5,326.5C -0.5,217.5 -0.5,108.5 -0.5,-0.5 Z"/></g>
<g><path style="opacity:1" fill="#e8f4f6" d="M 381.5,42.5 C 376.962,45.1305 372.295,47.4639 367.5,49.5C 349.937,55.2999 332.604,61.7999 315.5,69C 310.251,73.0042 309.251,77.8375 312.5,83.5C 312.833,84.5 313.5,85.1667 314.5,85.5C 316.858,88.2364 319.858,89.0698 323.5,88C 335.406,83.1925 347.406,78.6925 359.5,74.5C 360.791,74.2627 361.791,74.596 362.5,75.5C 352.059,80.0916 341.392,84.0916 330.5,87.5C 330.993,89.8056 331.326,92.139 331.5,94.5C 330.732,93.7375 330.232,92.7375 330,91.5C 329.667,92.1667 329.333,92.8333 329,93.5C 328.417,91.9984 327.584,90.6651 326.5,89.5C 323.412,89.3518 320.245,89.6852 317,90.5C 315.013,89.782 313.179,88.782 311.5,87.5C 307.661,80.3047 307.994,73.4713 312.5,67C 313.784,66.3162 314.951,66.4829 316,67.5C 316.483,66.552 316.649,65.552 316.5,64.5C 318.884,64.5567 321.218,64.2234 323.5,63.5C 333.39,59.0377 343.39,54.871 353.5,51C 361.789,49.5488 369.289,46.3822 376,41.5C 377.959,42.0439 379.792,42.3773 381.5,42.5 Z"/></g>
<g><path style="opacity:1" fill="#2e5165" d="M 367.5,49.5 C 367.67,50.8221 367.337,51.9887 366.5,53C 350.35,59.3278 334.017,65.1611 317.5,70.5C 312.526,73.8864 311.526,78.0531 314.5,83C 313.906,83.4643 313.239,83.631 312.5,83.5C 309.251,77.8375 310.251,73.0042 315.5,69C 332.604,61.7999 349.937,55.2999 367.5,49.5 Z"/></g>
<g><path style="opacity:1" fill="#1c4c69" d="M 396.5,59.5 C 392.49,60.8405 388.49,62.1738 384.5,63.5C 382.801,63.3398 381.134,63.5065 379.5,64C 370.212,67.8719 360.879,71.5386 351.5,75C 346.592,74.5965 342.592,76.2632 339.5,80C 334.768,81.4662 330.102,83.1329 325.5,85C 321.758,84.9184 318.091,85.085 314.5,85.5C 313.5,85.1667 312.833,84.5 312.5,83.5C 313.239,83.631 313.906,83.4643 314.5,83C 311.526,78.0531 312.526,73.8864 317.5,70.5C 334.017,65.1611 350.35,59.3278 366.5,53C 367.337,51.9887 367.67,50.8221 367.5,49.5C 372.295,47.4639 376.962,45.1305 381.5,42.5C 388.036,39.1172 393.869,40.1172 399,45.5C 401.293,50.7461 400.459,55.4127 396.5,59.5 Z"/></g>
<g><path style="opacity:1" fill="#264c63" d="M 335.5,94.5 C 334.167,95.8333 332.833,95.8333 331.5,94.5C 331.326,92.139 330.993,89.8056 330.5,87.5C 341.392,84.0916 352.059,80.0916 362.5,75.5C 371.71,72.3131 380.876,68.9798 390,65.5C 392.134,67.2871 392.967,69.6205 392.5,72.5C 373.268,79.4621 354.268,86.7954 335.5,94.5 Z"/></g>
<g><path style="opacity:1" fill="#294b5d" d="M 384.5,63.5 C 375.929,66.581 367.596,70.2477 359.5,74.5C 347.406,78.6925 335.406,83.1925 323.5,88C 319.858,89.0698 316.858,88.2364 314.5,85.5C 318.091,85.085 321.758,84.9184 325.5,85C 330.102,83.1329 334.768,81.4662 339.5,80C 342.592,76.2632 346.592,74.5965 351.5,75C 360.879,71.5386 370.212,67.8719 379.5,64C 381.134,63.5065 382.801,63.3398 384.5,63.5 Z"/></g>
<g><path style="opacity:1" fill="#cfe6eb" d="M 396.5,59.5 C 396.045,61.3666 395.378,63.1999 394.5,65C 395.532,67.2165 395.532,69.3832 394.5,71.5C 395.833,72.5 397.167,73.5 398.5,74.5C 399.489,78.1073 399.823,81.774 399.5,85.5C 398.844,84.7222 398.011,84.0556 397,83.5C 377.258,91.1356 357.425,98.4689 337.5,105.5C 337.5,106.5 337.5,107.5 337.5,108.5C 336.596,107.791 336.263,106.791 336.5,105.5C 335.209,105.737 334.209,105.404 333.5,104.5C 355.276,96.7782 376.942,88.7782 398.5,80.5C 398.671,75.5057 396.338,73.6724 391.5,75C 373.822,81.8403 356.155,88.6737 338.5,95.5C 337.791,94.596 336.791,94.2627 335.5,94.5C 354.268,86.7954 373.268,79.4621 392.5,72.5C 392.967,69.6205 392.134,67.2871 390,65.5C 380.876,68.9798 371.71,72.3131 362.5,75.5C 361.791,74.596 360.791,74.2627 359.5,74.5C 367.596,70.2477 375.929,66.581 384.5,63.5C 388.49,62.1738 392.49,60.8405 396.5,59.5 Z"/></g>
<g><path style="opacity:1" fill="#1e4c68" d="M 399.5,85.5 C 405.3,101.566 411.3,117.566 417.5,133.5C 417.64,135.124 416.973,136.29 415.5,137C 396.258,144.456 376.925,151.623 357.5,158.5C 355.38,152.824 353.047,147.157 350.5,141.5C 346.345,130.356 342.012,119.356 337.5,108.5C 337.5,107.5 337.5,106.5 337.5,105.5C 357.425,98.4689 377.258,91.1356 397,83.5C 398.011,84.0556 398.844,84.7222 399.5,85.5 Z"/></g>
<g><path style="opacity:1" fill="#254b62" d="M 333.5,104.5 C 332.545,102.254 331.878,99.921 331.5,97.5C 334.079,97.6061 336.412,96.9395 338.5,95.5C 356.155,88.6737 373.822,81.8403 391.5,75C 396.338,73.6724 398.671,75.5057 398.5,80.5C 376.942,88.7782 355.276,96.7782 333.5,104.5 Z"/></g>
<g><path style="opacity:1" fill="#e8f4f6" d="M 337.5,108.5 C 342.012,119.356 346.345,130.356 350.5,141.5C 349.85,141.196 349.183,140.863 348.5,140.5C 347.859,141.993 346.859,142.993 345.5,143.5C 346.511,141.598 346.678,139.598 346,137.5C 344.661,133.489 342.828,129.822 340.5,126.5C 328.218,131.038 315.885,135.371 303.5,139.5C 303.414,138.504 303.748,137.671 304.5,137C 308.175,136.443 311.508,135.11 314.5,133C 318.159,133.037 321.326,131.871 324,129.5C 324.333,129.833 324.667,130.167 325,130.5C 325.772,129.151 326.939,128.318 328.5,128C 330.81,127.503 333.143,127.337 335.5,127.5C 335.229,125.179 335.896,123.179 337.5,121.5C 337.154,120.304 336.654,120.304 336,121.5C 335.822,118.06 335.655,114.727 335.5,111.5C 336.612,110.735 337.279,109.735 337.5,108.5 Z"/></g>
<g><path style="opacity:1" fill="#1e4c69" d="M 345.5,143.5 C 336.534,146.263 327.867,149.596 319.5,153.5C 319.167,153.5 318.833,153.5 318.5,153.5C 312.97,152.485 307.97,153.985 303.5,158C 300.576,158.988 297.576,159.654 294.5,160C 293.5,161 292.5,162 291.5,163C 286.243,164.478 281.243,166.478 276.5,169C 272.916,170.073 269.25,170.74 265.5,171C 263.947,172.097 262.614,173.43 261.5,175C 256.289,174.879 251.956,176.713 248.5,180.5C 241.976,183.352 235.143,185.685 228,187.5C 226.56,186.852 225.06,186.519 223.5,186.5C 223.5,187.5 223.5,188.5 223.5,189.5C 218.554,189.589 213.887,190.755 209.5,193C 211.795,193.984 211.461,194.817 208.5,195.5C 207.614,196.325 207.281,197.325 207.5,198.5C 202.318,199.966 196.984,200.966 191.5,201.5C 191.649,202.552 191.483,203.552 191,204.5C 186.932,204.263 182.766,204.097 178.5,204C 180.539,201.626 182.872,199.626 185.5,198C 182.312,196.684 178.978,196.184 175.5,196.5C 175.762,195.022 175.429,193.689 174.5,192.5C 172.308,191.73 170.974,190.73 170.5,189.5C 214.814,172.996 259.148,156.329 303.5,139.5C 315.885,135.371 328.218,131.038 340.5,126.5C 342.828,129.822 344.661,133.489 346,137.5C 346.678,139.598 346.511,141.598 345.5,143.5 Z"/></g>
<g><path style="opacity:1" fill="#254c63" d="M 421.5,137.5 C 422.994,139.873 423.327,142.206 422.5,144.5C 401.146,152.513 379.813,160.513 358.5,168.5C 357.434,166.299 356.767,163.965 356.5,161.5C 357.959,161.567 359.292,161.234 360.5,160.5C 380.778,152.63 401.111,144.964 421.5,137.5 Z"/></g>
<g><path style="opacity:1" fill="#cce6ec" d="M 417.5,133.5 C 418.833,134.833 420.167,136.167 421.5,137.5C 401.111,144.964 380.778,152.63 360.5,160.5C 359.5,159.833 358.5,159.167 357.5,158.5C 376.925,151.623 396.258,144.456 415.5,137C 416.973,136.29 417.64,135.124 417.5,133.5 Z"/></g>
<g><path style="opacity:1" fill="#d6eaef" d="M 422.5,144.5 C 422.557,145.609 422.89,146.609 423.5,147.5C 403.209,154.749 382.876,162.083 362.5,169.5C 362.453,172.573 363.619,174.906 366,176.5C 384.828,169.163 403.661,161.997 422.5,155C 423.756,154.583 424.423,153.75 424.5,152.5C 425.922,152.709 427.255,153.209 428.5,154C 425.903,154.779 425.903,155.279 428.5,155.5C 427.5,156.167 426.5,156.833 425.5,157.5C 425.167,157.5 424.833,157.5 424.5,157.5C 404.516,165.162 384.516,172.829 364.5,180.5C 364.439,177.27 362.772,175.437 359.5,175C 359.833,174.667 360.167,174.333 360.5,174C 359.756,172.185 359.089,170.352 358.5,168.5C 379.813,160.513 401.146,152.513 422.5,144.5 Z"/></g>
<g><path style="opacity:1" fill="#1c4c69" d="M 424.5,157.5 C 424.833,157.5 425.167,157.5 425.5,157.5C 429.746,157.895 433.913,157.895 438,157.5C 441.072,159.16 442.572,161.827 442.5,165.5C 442.379,166.894 442.046,168.228 441.5,169.5C 438.553,171.704 435.22,172.704 431.5,172.5C 431.5,173.5 431.5,174.5 431.5,175.5C 428.68,175.248 426.014,175.748 423.5,177C 424.416,177.278 425.082,177.778 425.5,178.5C 422.813,178.336 420.146,178.503 417.5,179C 412.844,181.333 408.177,183.666 403.5,186C 399.158,187.296 394.825,187.796 390.5,187.5C 390.67,188.822 390.337,189.989 389.5,191C 387.167,191.333 384.833,191.667 382.5,192C 383.167,192.333 383.833,192.667 384.5,193C 382.5,193.333 380.5,193.667 378.5,194C 379.634,195.016 379.301,195.683 377.5,196C 372.614,197.745 367.614,198.412 362.5,198C 358.082,195.89 356.582,192.39 358,187.5C 359.332,185.34 360.832,183.34 362.5,181.5C 362.833,181.5 363.167,181.5 363.5,181.5C 368.666,183.756 372.666,182.589 375.5,178C 380.864,177.829 386.198,177.329 391.5,176.5C 390.5,175.833 389.5,175.167 388.5,174.5C 388.709,173.914 389.043,173.414 389.5,173C 398.3,170.096 406.966,166.929 415.5,163.5C 419.21,162.36 422.21,160.36 424.5,157.5 Z"/></g>
<g><path style="opacity:1" fill="#254c64" d="M 423.5,147.5 C 424.038,149.117 424.371,150.784 424.5,152.5C 424.423,153.75 423.756,154.583 422.5,155C 403.661,161.997 384.828,169.163 366,176.5C 363.619,174.906 362.453,172.573 362.5,169.5C 382.876,162.083 403.209,154.749 423.5,147.5 Z"/></g>
<g><path style="opacity:1" fill="#2e4e5f" d="M 425.5,178.5 C 425.082,177.778 424.416,177.278 423.5,177C 426.014,175.748 428.68,175.248 431.5,175.5C 431.5,174.5 431.5,173.5 431.5,172.5C 435.22,172.704 438.553,171.704 441.5,169.5C 442.046,168.228 442.379,166.894 442.5,165.5C 442.572,161.827 441.072,159.16 438,157.5C 433.913,157.895 429.746,157.895 425.5,157.5C 426.5,156.833 427.5,156.167 428.5,155.5C 439.792,152.713 444.958,157.047 444,168.5C 442.859,170.609 441.359,172.442 439.5,174C 434.915,175.794 430.249,177.294 425.5,178.5 Z"/></g>
<g><path style="opacity:1" fill="#e8f3f5" d="M 318.5,153.5 C 318.833,153.5 319.167,153.5 319.5,153.5C 318.653,154.966 317.32,155.8 315.5,156C 316.5,156.333 317.5,156.667 318.5,157C 316.5,157.333 314.5,157.667 312.5,158C 311.287,162.421 308.62,163.921 304.5,162.5C 300.512,165.406 296.012,167.406 291,168.5C 288.88,166.932 287.38,167.432 286.5,170C 282.982,171.339 279.482,172.839 276,174.5C 274.56,173.852 273.06,173.519 271.5,173.5C 287.008,166.583 302.674,159.916 318.5,153.5 Z"/></g>
<g><path style="opacity:1" fill="#264b60" d="M 318.5,153.5 C 302.674,159.916 287.008,166.583 271.5,173.5C 257.217,178.648 243.217,184.314 229.5,190.5C 222.313,193.467 214.98,196.134 207.5,198.5C 207.281,197.325 207.614,196.325 208.5,195.5C 211.461,194.817 211.795,193.984 209.5,193C 213.887,190.755 218.554,189.589 223.5,189.5C 223.5,188.5 223.5,187.5 223.5,186.5C 225.06,186.519 226.56,186.852 228,187.5C 235.143,185.685 241.976,183.352 248.5,180.5C 251.956,176.713 256.289,174.879 261.5,175C 262.614,173.43 263.947,172.097 265.5,171C 269.25,170.74 272.916,170.073 276.5,169C 281.243,166.478 286.243,164.478 291.5,163C 292.5,162 293.5,161 294.5,160C 297.576,159.654 300.576,158.988 303.5,158C 307.97,153.985 312.97,152.485 318.5,153.5 Z"/></g>
<g><path style="opacity:1" fill="#284f63" d="M 424.5,157.5 C 422.21,160.36 419.21,162.36 415.5,163.5C 406.966,166.929 398.3,170.096 389.5,173C 389.043,173.414 388.709,173.914 388.5,174.5C 389.5,175.167 390.5,175.833 391.5,176.5C 386.198,177.329 380.864,177.829 375.5,178C 372.666,182.589 368.666,183.756 363.5,181.5C 363.5,180.833 363.833,180.5 364.5,180.5C 384.516,172.829 404.516,165.162 424.5,157.5 Z"/></g>
<g><path style="opacity:1" fill="#e5f1f3" d="M 425.5,179.5 C 425.376,181.582 424.376,183.082 422.5,184C 411.925,187.359 401.425,191.192 391,195.5C 389.862,195.011 388.695,194.678 387.5,194.5C 399.774,188.737 412.441,183.737 425.5,179.5 Z"/></g>
<g><path style="opacity:1" fill="#dfedf1" d="M 229.5,190.5 C 226.44,192.047 223.774,194.214 221.5,197C 215.595,198.947 209.595,200.447 203.5,201.5C 204.833,200.5 206.167,199.5 207.5,198.5C 214.98,196.134 222.313,193.467 229.5,190.5 Z"/></g>
<g><path style="opacity:1" fill="#284b5f" d="M 425.5,178.5 C 425.5,178.833 425.5,179.167 425.5,179.5C 412.441,183.737 399.774,188.737 387.5,194.5C 380.925,195.969 374.591,198.136 368.5,201C 366.19,201.497 363.857,201.663 361.5,201.5C 351.909,194.37 352.242,187.703 362.5,181.5C 360.832,183.34 359.332,185.34 358,187.5C 356.582,192.39 358.082,195.89 362.5,198C 367.614,198.412 372.614,197.745 377.5,196C 379.301,195.683 379.634,195.016 378.5,194C 380.5,193.667 382.5,193.333 384.5,193C 383.833,192.667 383.167,192.333 382.5,192C 384.833,191.667 387.167,191.333 389.5,191C 390.337,189.989 390.67,188.822 390.5,187.5C 394.825,187.796 399.158,187.296 403.5,186C 408.177,183.666 412.844,181.333 417.5,179C 420.146,178.503 422.813,178.336 425.5,178.5 Z"/></g>
<g><path style="opacity:1" fill="#ddeaed" d="M 387.5,194.5 C 388.552,196.655 387.886,196.988 385.5,195.5C 384.209,197.959 382.209,199.459 379.5,200C 373.432,201.972 367.432,202.472 361.5,201.5C 363.857,201.663 366.19,201.497 368.5,201C 374.591,198.136 380.925,195.969 387.5,194.5 Z"/></g>
<g><path style="opacity:1" fill="#e8f4f6" d="M 151.5,195.5 C 143.51,198.827 135.51,202.161 127.5,205.5C 127.167,205.5 126.833,205.5 126.5,205.5C 117.813,208.514 109.146,211.514 100.5,214.5C 100.414,213.504 100.748,212.671 101.5,212C 104.569,210.154 107.902,209.154 111.5,209C 124.3,202.316 137.633,197.816 151.5,195.5 Z"/></g>
<g><path style="opacity:1" fill="#e3f0f3" d="M 202.5,201.5 C 199.835,205.129 196.169,207.129 191.5,207.5C 191.5,208.5 191.5,209.5 191.5,210.5C 182.996,212.378 174.829,215.045 167,218.5C 166.586,218.043 166.086,217.709 165.5,217.5C 163.821,219.104 161.821,219.771 159.5,219.5C 173.432,212.739 187.765,206.739 202.5,201.5 Z"/></g>
<g><path style="opacity:1" fill="#214c66" d="M 170.5,189.5 C 170.974,190.73 172.308,191.73 174.5,192.5C 175.429,193.689 175.762,195.022 175.5,196.5C 178.978,196.184 182.312,196.684 185.5,198C 182.872,199.626 180.539,201.626 178.5,204C 182.766,204.097 186.932,204.263 191,204.5C 191.483,203.552 191.649,202.552 191.5,201.5C 196.984,200.966 202.318,199.966 207.5,198.5C 206.167,199.5 204.833,200.5 203.5,201.5C 203.167,201.5 202.833,201.5 202.5,201.5C 187.765,206.739 173.432,212.739 159.5,219.5C 158.508,219.328 157.842,219.662 157.5,220.5C 151.107,222.354 144.774,224.52 138.5,227C 137.058,227.377 136.058,228.21 135.5,229.5C 130.762,230.698 126.095,232.198 121.5,234C 101.131,243.021 80.4643,251.188 59.5,258.5C 53.1946,257.921 49.0279,254.588 47,248.5C 44.9778,239.874 48.1445,234.207 56.5,231.5C 71.1331,225.843 85.7997,220.176 100.5,214.5C 109.146,211.514 117.813,208.514 126.5,205.5C 126.611,206.117 126.944,206.617 127.5,207C 124.504,207.66 122.004,209.16 120,211.5C 114.163,211.609 108.996,213.442 104.5,217C 106.594,218.352 108.927,218.852 111.5,218.5C 111.5,219.833 111.5,221.167 111.5,222.5C 119.491,221.167 127.491,219.834 135.5,218.5C 141.737,220.772 148.07,220.439 154.5,217.5C 155.086,217.709 155.586,218.043 156,218.5C 161.419,215.041 167.252,212.541 173.5,211C 175.001,209.748 176.668,208.748 178.5,208C 177.552,207.517 176.552,207.351 175.5,207.5C 175.5,206.167 175.5,204.833 175.5,203.5C 172.126,203.326 168.793,202.826 165.5,202C 165.5,200.333 165.5,198.667 165.5,197C 163.874,197.195 162.207,197.195 160.5,197C 161.672,196.581 162.672,195.915 163.5,195C 163.167,194.833 162.833,194.667 162.5,194.5C 160.018,195.897 157.352,196.731 154.5,197C 152.489,200.177 149.822,202.677 146.5,204.5C 145.389,203.389 144.055,202.722 142.5,202.5C 138.446,203.103 134.446,203.936 130.5,205C 132.595,205.556 132.762,206.056 131,206.5C 129.862,206.011 128.695,205.678 127.5,205.5C 135.51,202.161 143.51,198.827 151.5,195.5C 157.783,193.518 164.117,191.518 170.5,189.5 Z"/></g>
<g><path style="opacity:1" fill="#1b4c69" d="M 126.5,205.5 C 126.833,205.5 127.167,205.5 127.5,205.5C 128.695,205.678 129.862,206.011 131,206.5C 132.762,206.056 132.595,205.556 130.5,205C 134.446,203.936 138.446,203.103 142.5,202.5C 144.055,202.722 145.389,203.389 146.5,204.5C 149.822,202.677 152.489,200.177 154.5,197C 157.352,196.731 160.018,195.897 162.5,194.5C 162.833,194.667 163.167,194.833 163.5,195C 162.672,195.915 161.672,196.581 160.5,197C 162.207,197.195 163.874,197.195 165.5,197C 165.5,198.667 165.5,200.333 165.5,202C 168.793,202.826 172.126,203.326 175.5,203.5C 175.5,204.833 175.5,206.167 175.5,207.5C 176.552,207.351 177.552,207.517 178.5,208C 176.668,208.748 175.001,209.748 173.5,211C 167.252,212.541 161.419,215.041 156,218.5C 155.586,218.043 155.086,217.709 154.5,217.5C 148.07,220.439 141.737,220.772 135.5,218.5C 127.491,219.834 119.491,221.167 111.5,222.5C 111.5,221.167 111.5,219.833 111.5,218.5C 108.927,218.852 106.594,218.352 104.5,217C 108.996,213.442 114.163,211.609 120,211.5C 122.004,209.16 124.504,207.66 127.5,207C 126.944,206.617 126.611,206.117 126.5,205.5 Z"/></g>
<g><path style="opacity:1" fill="#ddecf0" d="M 157.5,220.5 C 153.83,224.665 149.163,226.665 143.5,226.5C 143.5,227.5 143.5,228.5 143.5,229.5C 140.833,229.5 138.167,229.5 135.5,229.5C 136.058,228.21 137.058,227.377 138.5,227C 144.774,224.52 151.107,222.354 157.5,220.5 Z"/></g>
<g><path style="opacity:1" fill="#1b4c6a" d="M 56.5,231.5 C 59.9215,232.133 63.2548,233.133 66.5,234.5C 67.5,234.333 68.5,234.167 69.5,234C 68.6634,232.989 68.33,231.822 68.5,230.5C 72.0197,230.604 75.1864,229.604 78,227.5C 78.3333,227.833 78.6667,228.167 79,228.5C 79.3076,227.692 79.8076,227.025 80.5,226.5C 81.7362,227.246 83.0695,227.579 84.5,227.5C 83.2073,231.384 82.5407,235.384 82.5,239.5C 81.5,239.5 80.5,239.5 79.5,239.5C 79.281,240.675 79.6143,241.675 80.5,242.5C 83.741,241.062 86.741,239.228 89.5,237C 91.4727,236.505 93.4727,236.338 95.5,236.5C 95.4802,238.143 96.1468,239.476 97.5,240.5C 92.783,241.209 88.783,243.209 85.5,246.5C 83.604,247.466 81.604,247.799 79.5,247.5C 79.5,248.5 79.5,249.5 79.5,250.5C 74.2757,252.272 68.9424,253.772 63.5,255C 52.7451,257.579 48.5784,253.412 51,242.5C 53.0226,240.987 52.8559,239.654 50.5,238.5C 51.4964,235.668 53.4964,234.335 56.5,234.5C 56.5,233.5 56.5,232.5 56.5,231.5 Z"/></g>
<g><path style="opacity:1" fill="#f3fdfd" d="M 493.5,248.5 C 491.999,247.248 490.332,246.248 488.5,245.5C 431.069,244.169 373.736,244.169 316.5,245.5C 311.032,247.578 309.032,251.578 310.5,257.5C 309.33,255.35 308.33,253.016 307.5,250.5C 313.31,241.772 321.31,238.939 331.5,242C 333.437,241.878 334.77,241.045 335.5,239.5C 381.501,239.667 427.501,239.5 473.5,239C 479.109,235.723 480.942,230.89 479,224.5C 477.362,222.266 475.195,220.933 472.5,220.5C 425.335,219.335 378.002,219.168 330.5,220C 329.944,220.383 329.611,220.883 329.5,221.5C 322.891,226.668 322.891,232.001 329.5,237.5C 330.167,238.167 330.833,238.833 331.5,239.5C 324.672,239.929 321.338,236.596 321.5,229.5C 321.914,224.044 324.581,220.211 329.5,218C 374.696,217.826 419.862,217.326 465,216.5C 469.795,217.741 474.629,218.741 479.5,219.5C 479.5,220.833 479.5,222.167 479.5,223.5C 480.5,223.5 481.5,223.5 482.5,223.5C 482.62,225.199 482.954,226.865 483.5,228.5C 483.368,230.601 482.368,232.101 480.5,233C 481.337,234.011 481.67,235.178 481.5,236.5C 478.768,238.035 476.102,239.869 473.5,242C 478.551,243.909 483.051,243.076 487,239.5C 487.483,240.448 487.649,241.448 487.5,242.5C 489.167,242.5 490.833,242.5 492.5,242.5C 492.48,244.143 493.147,245.476 494.5,246.5C 494.137,247.183 493.804,247.85 493.5,248.5 Z"/></g>
<g><path style="opacity:1" fill="#2e4f61" d="M 472.5,220.5 C 475.195,220.933 477.362,222.266 479,224.5C 480.942,230.89 479.109,235.723 473.5,239C 427.501,239.5 381.501,239.667 335.5,239.5C 334.167,239.5 332.833,239.5 331.5,239.5C 330.833,238.833 330.167,238.167 329.5,237.5C 376.803,237.808 424.136,237.475 471.5,236.5C 472.765,235.521 474.099,234.521 475.5,233.5C 476.711,232.28 476.711,231.113 475.5,230C 478.358,226.194 477.358,223.694 472.5,222.5C 426.002,221.335 379.335,221.168 332.5,222C 331.5,222.5 330.5,223 329.5,223.5C 328.537,223.03 328.537,222.363 329.5,221.5C 377.124,220.51 424.791,220.176 472.5,220.5 Z"/></g>
<g><path style="opacity:1" fill="#1b4c6b" d="M 472.5,222.5 C 477.358,223.694 478.358,226.194 475.5,230C 476.711,231.113 476.711,232.28 475.5,233.5C 474.099,234.521 472.765,235.521 471.5,236.5C 426.165,236.667 380.832,236.5 335.5,236C 329.865,235.568 328.198,232.735 330.5,227.5C 332.071,228.309 333.738,228.643 335.5,228.5C 335.5,230.167 335.5,231.833 335.5,233.5C 378.168,233.667 420.835,233.5 463.5,233C 465.921,230.906 468.588,229.24 471.5,228C 463.394,224.708 463.727,222.875 472.5,222.5 Z"/></g>
<g><path style="opacity:1" fill="#1d4b66" d="M 329.5,221.5 C 328.537,222.363 328.537,223.03 329.5,223.5C 330.5,223 331.5,222.5 332.5,222C 379.335,221.168 426.002,221.335 472.5,222.5C 463.727,222.875 463.394,224.708 471.5,228C 468.588,229.24 465.921,230.906 463.5,233C 420.835,233.5 378.168,233.667 335.5,233.5C 335.5,231.833 335.5,230.167 335.5,228.5C 333.738,228.643 332.071,228.309 330.5,227.5C 328.198,232.735 329.865,235.568 335.5,236C 380.832,236.5 426.165,236.667 471.5,236.5C 424.136,237.475 376.803,237.808 329.5,237.5C 322.891,232.001 322.891,226.668 329.5,221.5 Z"/></g>
<g><path style="opacity:1" fill="#194d6c" d="M 335.5,222.5 C 378.167,222.5 420.833,222.5 463.5,222.5C 463.5,223.5 463.5,224.5 463.5,225.5C 420.833,225.5 378.167,225.5 335.5,225.5C 335.5,224.5 335.5,223.5 335.5,222.5 Z"/></g>
<g><path style="opacity:1" fill="#516b76" d="M 472.5,220.5 C 424.791,220.176 377.124,220.51 329.5,221.5C 329.611,220.883 329.944,220.383 330.5,220C 378.002,219.168 425.335,219.335 472.5,220.5 Z"/></g>
<g><path style="opacity:1" fill="#2e4e5e" d="M 488.5,245.5 C 431.167,246.833 373.833,246.833 316.5,245.5C 373.736,244.169 431.069,244.169 488.5,245.5 Z"/></g>
<g><path style="opacity:1" fill="#214e6a" d="M 316.5,245.5 C 373.833,246.833 431.167,246.833 488.5,245.5C 490.332,246.248 491.999,247.248 493.5,248.5C 493.833,249.833 494.167,251.167 494.5,252.5C 494.856,257.952 492.523,261.785 487.5,264C 430.833,264.667 374.167,264.667 317.5,264C 314.379,263.033 312.046,261.2 310.5,258.5C 310.5,258.167 310.5,257.833 310.5,257.5C 309.032,251.578 311.032,247.578 316.5,245.5 Z"/></g>
<g><path style="opacity:1" fill="#edfbfc" d="M 494.5,252.5 C 495.979,256.382 495.645,260.216 493.5,264C 492.5,264.333 491.5,264.667 490.5,265C 432.982,265.177 375.482,265.677 318,266.5C 315.17,265.849 312.67,264.516 310.5,262.5C 309.295,261.005 309.295,259.672 310.5,258.5C 312.046,261.2 314.379,263.033 317.5,264C 374.167,264.667 430.833,264.667 487.5,264C 492.523,261.785 494.856,257.952 494.5,252.5 Z"/></g>
</svg>
